<svg xmlns="http://www.w3.org/2000/svg" viewBox="0 0 638 169.7" width="104" height="28"><title>Sedex</title><path fill="#333333" d="M438.3 75.9C451.3 75.9 463 83.4 468.7 94.8L408.1 94.8C413.6 83.4 425.3 76.1 438.3 75.9M496.8 98C496.1 94.4 495.1 90.6 493.8 87.2C491.3 80.2 487.2 73.8 481.9 68.3C476.6 62.7 470.2 58.3 463.2 55.3C455.3 52.1 446.8 50.4 438.3 50.6C429.6 50.4 421.1 52.1 413 55.3C405.8 58.3 399.4 62.7 393.9 68.3C388.5 73.8 384.5 80.2 381.7 87.4C379 94.6 377.5 102.5 377.5 110.4C377.5 118 379 125.7 381.7 132.9C387.3 147.4 398.5 158.7 413 164.6C420.9 167.8 429.4 169.5 437.9 169.3C449.4 169.5 460.9 166.5 470.8 160.8C479.6 155.7 486.8 148.2 491.3 139.1L492.8 136.1L466.4 128.9L465.3 130.4C454 145.2 432.8 148 417.9 136.7C412.8 132.9 409 127.6 406.6 121.4L496.6 121.4L497 119.3C497.4 117.8 497.6 116.3 497.6 114.8L497.6 109.5C497.6 105.7 497.2 101.9 496.8 98"/><path fill="#333333" d="M151 94.8C159.3 78 179.5 71.2 196.3 79.5C202.9 82.7 208.4 88.3 211.6 94.8ZM239.9 98C239.2 94.4 238.2 90.6 236.9 87.2C234.4 80.2 230.3 73.8 225 68.3C219.7 62.7 213.3 58.3 206.3 55.3C198.4 51.9 189.9 50.4 181.4 50.4C172.7 50.2 164.2 51.9 156.3 55.3C149.1 58.3 142.7 62.7 137.2 68.3C131.8 73.8 127.8 80.2 125 87.4C122.3 94.6 120.8 102.5 120.8 110.4C120.8 118 122.3 125.7 125 132.9C130.8 147.4 142.1 158.7 156.3 164.6C164.2 167.8 172.7 169.5 181.2 169.3C192.7 169.5 204.2 166.5 214.2 160.8C222.9 155.7 229.9 148.2 234.6 139.1L236.1 136.1L209.7 128.9L208.4 130.4C197.1 145.2 175.9 148 161 136.8C155.9 132.9 152.1 127.6 149.7 121.4L239.7 121.4L240.1 119.3C240.5 117.8 240.7 116.1 240.7 114.6L240.7 109.3C240.7 105.5 240.3 101.7 239.9 98"/><path fill="#333333" d="M7.7 139.9Z"/><path fill="#333333" d="M7.2 143.6Z"/><path fill="#333333" d="M7.7 140.8Z"/><path fill="#333333" d="M7 143.6L7 143.6M7.7 139.9Z"/><path fill="#333333" d="M7.7 140.2ZM7 143.6ZM78.5 76.1L55.3 66.6C43.2 61.7 31.7 57 31.7 45.1C31.7 33.8 41.7 26.8 57.4 26.8C61.7 26.8 65.9 27.4 70.2 28.5L70.6 28.7L70.8 28.7C71.2 28.9 71.5 28.9 71.9 29.1L72.1 29.1L72.5 29.4L73.4 29.8L73.8 30L74.4 30.2C75.1 30.4 75.7 30.8 76.1 31.1L77.2 31.7L77.8 32.1L78.9 32.8L79.5 33.2C80.6 33.8 81.7 34.7 82.5 35.5C84 36.8 85.3 38.1 86.3 39.6L87.6 41L89.3 40.4L113.8 33.8L112.3 30.8C107.6 21.9 100.6 14.7 91.9 9.8C84.6 5.7 76.8 3.2 68.5 2.3C64.9 1.7 61.2 1.3 57.6 1.3C42.5 1.3 28.9 5.7 18.9 13.8C8.7 21.3 2.8 33.4 2.8 45.9C2.8 65.5 14.2 79.8 37.6 89.5L60.6 99.3C74.7 105.3 84.8 109.5 84.8 122.7C84.8 135.9 73.6 143.6 55.5 143.6L51.5 143.6C48.1 143.3 44.9 142.5 41.7 141.2L41.3 141L40.8 140.8L40.4 140.6L40 140.4L39.8 140.4L39.3 140.2C38.7 139.9 38.3 139.5 37.4 139.3L37 139.1L36.6 138.9L36.4 138.9L35.9 138.2L34.9 137.6L34.2 137.2C33.2 136.5 32.3 135.7 31.3 134.8C29.8 133.6 28.5 132.1 27.4 130.6L26.2 129.1L24.7 129.7L0 136.3L1.5 139.3C2.5 141.4 3.6 143.3 4.9 145L5.3 145.7L6 146.3C10.2 152.1 15.7 156.7 21.9 160.3C27.2 163.5 33 165.7 38.9 166.9L39.1 167.2L39.3 167.2C44.5 168.4 49.8 169.1 55.1 169.1C72.3 169.1 87 164.4 97.6 155.2C107.8 146.9 113.8 134.4 113.8 121C114 94.4 95.9 83.4 78.5 76.1"/><path fill="#333333" d="M592.5 169.7L562.1 169.7L536.6 131.4L511 169.7L480.6 169.7L521.5 111.2L479.4 51L509.8 51Z"/><path fill="#333333" d="M307.1 76.8C325.4 76.3 340.5 90.6 340.9 108.9C341.3 127.2 327.1 142.3 308.8 142.7C290.5 143.1 275.4 128.9 275 110.6L275 109.7C275 91.9 289.2 77.2 307.1 76.8M339.2 0L339.2 59.5C329.6 53.2 318.6 49.8 307.1 49.8C274.8 49.8 248.6 76.6 248.6 109.7C248.6 142.9 275 169.7 307.1 169.7C318.6 169.7 329.6 166.3 339.2 159.9L339.2 169.3L368.3 169.3L368.3 0Z"/><path fill="#d50045" d="M584.2 1.7C554.4 1.7 530.4 25.7 530.4 55.5C530.4 67.2 534.2 78.7 541.2 88L566.8 49.5L595.5 49.5L558.2 102.7C584.2 117 617 107.6 631.4 81.5C645.7 55.5 636.3 22.8 610.1 8.3C602.3 4 593.3 1.7 584.2 1.7"/></svg>
